<?xml version="1.0" standalone="no"?>
<!DOCTYPE svg PUBLIC "-//W3C//DTD SVG 20010904//EN"
 "http://www.w3.org/TR/2001/REC-SVG-20010904/DTD/svg10.dtd">
<svg version="1.0" xmlns="http://www.w3.org/2000/svg"
 width="128.000000pt" height="128.000000pt" viewBox="0 0 128.000000 128.000000"
 preserveAspectRatio="xMidYMid meet">
<metadata>
Created by potrace 1.11, written by Peter Selinger 2001-2013
</metadata>
<g transform="translate(0.000000,128.000000) scale(0.100000,-0.100000)"
fill="#000000" stroke="none">
<path d="M155 1271 c-68 -17 -127 -74 -145 -141 -7 -27 -10 -193 -8 -508 3
-417 5 -470 20 -498 22 -40 81 -92 116 -101 35 -10 969 -10 1004 0 35 9 94 61
116 101 15 28 17 81 20 498 2 315 -1 481 -8 508 -12 46 -59 103 -104 128 -28
15 -80 17 -506 19 -261 1 -488 -2 -505 -6z"/>
</g>
</svg>
